<?xml version="1.0" encoding="UTF-8" standalone="no"?>
<!DOCTYPE svg PUBLIC "-//W3C//DTD SVG 1.1//EN" "http://www.w3.org/Graphics/SVG/1.1/DTD/svg11.dtd">
<svg version="1.1" xmlns="http://www.w3.org/2000/svg" xmlns:xlink="http://www.w3.org/1999/xlink" preserveAspectRatio="xMidYMid meet" viewBox="0 0 640 640" width="640" height="640"><defs><path d="M0 0L640 0L640 633.69L0 633.69L0 0Z" id="b1hb7CkDkJ"></path><path d="M514.97 350.85C514.97 369.62 499.73 384.86 480.96 384.86C462.19 384.86 446.95 369.62 446.95 350.85C446.95 332.08 462.19 316.85 480.96 316.85C499.73 316.85 514.97 332.08 514.97 350.85Z" id="a2vQMGk3bu"></path><path d="M266.26 384.86C266.26 399.62 254.27 411.6 239.51 411.6C224.74 411.6 212.76 399.62 212.76 384.86C212.76 370.09 224.74 358.11 239.51 358.11C254.27 358.11 266.26 370.09 266.26 384.86Z" id="e29FLxicIA"></path><path d="M431.36 198.88C431.36 214.46 418.71 227.11 403.13 227.11C387.55 227.11 374.9 214.46 374.9 198.88C374.9 183.3 387.55 170.64 403.13 170.64C418.71 170.64 431.36 183.3 431.36 198.88Z" id="b3iJ5g0t2"></path><path d="M167.83 217.01C167.83 224.88 161.44 231.27 153.57 231.27C145.69 231.27 139.3 224.88 139.3 217.01C139.3 209.13 145.69 202.74 153.57 202.74C161.44 202.74 167.83 209.13 167.83 217.01Z" id="dJjMlPFAc"></path></defs><g><g><g><use xlink:href="#b1hb7CkDkJ" opacity="1" fill="#fbb71c" fill-opacity="1"></use></g><g><use xlink:href="#a2vQMGk3bu" opacity="1" fill="#ecf8f8" fill-opacity="1"></use></g><g><use xlink:href="#e29FLxicIA" opacity="1" fill="#eabe30" fill-opacity="0.16"></use><use xlink:href="#e29FLxicIA" opacity="1" fill="#f5d15c" fill-opacity="1"></use></g><g><use xlink:href="#b3iJ5g0t2" opacity="1" fill="#bafc47" fill-opacity="0.24"></use></g><g><use xlink:href="#dJjMlPFAc" opacity="1" fill="#7083b7" fill-opacity="1"></use></g></g></g></svg>